<svg width="2500" height="2500" viewBox="0 0 2500 2500" fill="none" xmlns="http://www.w3.org/2000/svg">
<path fill-rule="evenodd" clip-rule="evenodd" d="M326.423 1379.27H215.013L277.177 1264.51C285.769 1248.8 293.59 1232.68 300.613 1216.21H301.573C302.533 1231.99 304.439 1248.73 307.306 1264.03L326.423 1379.27ZM389.547 1489.72L335.035 1166.95H287.215L110.295 1489.72H156.208L196.855 1414.17H331.702L343.18 1489.72H389.547V1489.72ZM573.16 1307.07C573.16 1335.76 540.645 1350.57 467.002 1353.45C478.014 1313.27 503.344 1280.28 541.125 1280.28C560.255 1280.3 573.16 1289.84 573.16 1307.07V1307.07ZM615.727 1301.8C615.727 1273.59 596.596 1247.77 545.923 1247.77C467.015 1247.77 415.85 1324.76 415.85 1417.05C415.85 1470.6 441.206 1494.04 495.704 1494.04C526.78 1494.04 554.522 1488.79 577.466 1479.69V1445.27C556.909 1453.88 533.005 1459.14 510.529 1459.14C472.281 1459.14 459.363 1449.58 459.363 1412.76C459.363 1404.15 460.323 1392.2 461.763 1385.02C563.601 1381.18 615.727 1352.97 615.727 1301.8V1301.8ZM780.209 1289.38C736.216 1276.94 689.356 1370.18 676.931 1436.17L666.892 1489.72H624.805L669.759 1252.08H710.886C707.06 1272.63 700.354 1297.98 686.503 1339.58L687.449 1340.06C714.232 1282.19 742.921 1240.12 788.821 1247.77L780.209 1289.38V1289.38Z" fill="#00A2D3"/>
<path fill-rule="evenodd" clip-rule="evenodd" d="M978.167 1374.5H889.22L933.214 1292.24C943.252 1273.59 951.384 1254.94 958.556 1238.21H959.036C960.026 1255.49 961.778 1272.72 964.289 1289.84L978.167 1374.5V1374.5ZM1059.46 1489.72L1007.82 1166.95H938.959L766.824 1489.72H830.415L864.837 1423.74H984.379L993.938 1489.72H1059.46V1489.72ZM1235.42 1306.11C1200.52 1295.11 1158.91 1357.74 1143.13 1438.09L1133.09 1489.72H1073.33L1097.23 1365.39C1103.92 1331.93 1113.01 1282.67 1117.8 1252.08H1175.66C1172.31 1270.25 1166.57 1291.28 1155.09 1323.8H1156.05C1181.39 1273.59 1207.21 1240.6 1248.33 1247.3L1235.42 1306.11V1306.11ZM1400.41 1298.93L1397.52 1314.24C1387.97 1364.45 1345.41 1442.39 1311.46 1442.39C1299.51 1442.39 1293.28 1432.83 1293.28 1409.4C1293.28 1359.67 1318.64 1295.6 1373.63 1295.6C1384.15 1295.6 1392.76 1297.03 1400.41 1298.93V1298.93ZM1468.29 1254.94C1441.52 1249.69 1412.85 1247.77 1384.15 1247.77C1279.91 1247.77 1231.61 1330.97 1231.61 1420.88C1231.61 1471.56 1251.22 1494.99 1287.56 1494.99C1334.9 1494.99 1367.88 1449.09 1387.01 1414.18H1387.97C1376.97 1447.18 1369.79 1471.1 1365.51 1489.73H1424.78C1434.83 1427.09 1447.27 1365.39 1468.29 1254.94V1254.94ZM1671.98 1489.72H1611.74L1640.44 1340.53C1646.16 1311.36 1641.38 1299.4 1626.08 1299.4C1594.04 1299.4 1551.03 1374 1540.48 1429.46L1529.01 1489.72H1469.25L1493.17 1365.39C1500.73 1327.75 1507.57 1289.97 1513.71 1252.08H1572.53C1569.67 1266.41 1563.92 1288.42 1551.03 1325.72L1551.96 1326.2C1573.49 1283.64 1606.47 1246.82 1651.92 1246.82C1697.82 1246.82 1711.67 1279.34 1703.06 1325.72L1671.98 1489.72ZM1920.16 1489.72H1859.92L1888.59 1340.53C1894.34 1311.36 1889.55 1299.4 1874.26 1299.4C1842.21 1299.4 1799.18 1374 1788.66 1429.46L1777.18 1489.72H1717.4L1741.32 1365.39C1748.97 1327.14 1756.62 1285.07 1761.89 1252.08H1820.71C1817.84 1266.41 1812.1 1288.42 1799.18 1325.72L1800.14 1326.2C1821.67 1283.64 1854.65 1246.82 1900.07 1246.82C1946 1246.82 1959.85 1279.34 1951.24 1325.72L1920.16 1489.72V1489.72Z" fill="#1A3B73"/>
<path fill-rule="evenodd" clip-rule="evenodd" d="M2316.88 1152.01C2324.1 1038.05 2062.61 1006.86 1732.89 1082.31C1608.51 1110.72 1492.21 1150.33 1395.22 1194.68C1504.05 1135.96 1648.39 1082.18 1805.65 1046.17C2135.45 970.696 2396.86 1001.9 2389.72 1115.84C2385.2 1186.88 2277.5 1273.22 2117.2 1346.49C2236.49 1282.1 2313.08 1211.66 2316.88 1152.01V1152.01Z" fill="#00A2D3"/>
<path fill-rule="evenodd" clip-rule="evenodd" d="M2160.23 1212.53C2173.91 1113.49 1957.15 1078.49 1676.15 1134.23C1570.16 1155.28 1470.23 1186.27 1386.03 1222C1481.07 1174.07 1605.42 1131.56 1739.5 1104.93C2020.51 1049.18 2237.3 1084.21 2223.59 1183.23C2215.08 1244.95 2119.14 1316.92 1980.13 1375.94C2084.25 1323.37 2153.14 1264.34 2160.23 1212.53Z" fill="#1A3B73"/>
</svg>
