<svg width="2500" height="2500" viewBox="0 0 2500 2500" fill="none" xmlns="http://www.w3.org/2000/svg">
<path fill-rule="evenodd" clip-rule="evenodd" d="M831.258 1062.81V1383.26H773.115V1062.81C773.115 1062.81 685.984 1062.64 686.152 1062.81C686.191 1062.85 686.191 1033.95 686.152 1033.94H918.713V1062.76L831.258 1062.81V1062.81ZM205.363 1186.94L337.655 1033.94H375.695L262.78 1163.45L410.61 1383.43H339.25L223.21 1209.73L205.195 1230.53L205.363 1383.25H147.051V1033.94H205.363V1186.94V1186.94ZM1352.89 1353.93H1529.87V1383.08H1270.25L1449.63 1062.76H1299.08V1033.61H1532.59L1352.89 1353.93V1353.93Z" fill="black"/>
<path fill-rule="evenodd" clip-rule="evenodd" d="M1818.13 1023.78C1817.49 1023.5 1816.86 1023.18 1816.21 1022.87C1814.03 1023.29 1811.47 1023.41 1811.11 1017.96C1811.11 1017.96 1808.3 986.831 1807.87 986C1805.46 981.305 1798.24 979.697 1795.78 970.009C1795.2 967.791 1799.15 912.54 1816.03 891.996C1816.03 891.996 1816.77 890.854 1818.13 888.922V1023.78V1023.78Z" fill="white"/>
<path fill-rule="evenodd" clip-rule="evenodd" d="M1818.13 1023.82C1817.48 1023.52 1816.84 1023.2 1816.21 1022.86C1814.94 1022.86 1811.72 1023.18 1811.42 1020.62L1807.88 985.975C1803.39 979.879 1795.09 976.351 1795.72 967.687C1796.68 950.995 1799.23 934.64 1803.39 918.921C1800.53 934.941 1800.53 951.343 1803.39 967.363C1806.91 966.714 1810.14 964.471 1814.31 967.039C1816.77 969.697 1817.79 972.966 1818.14 976.481V985.326L1815.59 1018.68L1816.86 1019.98L1818.15 1013.9V1023.82H1818.13V1023.82ZM1818.13 950.813C1815.29 944.432 1813.39 937.688 1814.61 929.517C1814.61 919.79 1815.91 910.503 1818.13 901.645V950.813ZM1818.13 894.525C1807.47 885.472 1800 874.668 1795.7 861.828C1794.74 860.22 1796.49 857.613 1797.48 856.342C1804.37 854.37 1808.83 858.598 1814.3 858.274L1818.13 858.819V894.525V894.525ZM510.075 1383.43H568.205V1034.18H510.075V1383.43ZM1122.17 1062.81V1383.26H1064.04V1062.81C1064.04 1062.81 976.896 1062.64 977.064 1062.81C977.103 1062.85 977.116 1033.95 977.064 1033.94H1209.61V1062.76L1122.17 1062.81Z" fill="black"/>
<path d="M1809.33 902.955C1798.36 924.692 1795.3 968.115 1795.78 969.983C1798.23 979.684 1805.46 981.292 1807.87 985.975C1808.3 986.805 1811.11 1017.93 1811.11 1017.93C1811.46 1023.38 1814.03 1023.28 1816.21 1022.85L1818.13 1023.76" stroke="black" stroke-width="2.34753" stroke-miterlimit="2.613" stroke-linecap="round"/>
<path fill-rule="evenodd" clip-rule="evenodd" d="M1844.09 861.659C1865.09 847.354 1892.6 855.317 1914.47 864.526C1933.16 874.668 1950.29 888.649 1962.97 905.795C1968.37 912.462 1972.47 921.035 1980.09 926.119C2007.02 931.514 2027.62 950.23 2045.37 970.878C2059 977.544 2076.45 977.544 2091.65 981.98C2158.22 991.188 2218.13 1040.07 2239.68 1105.46C2257.78 1153.08 2251.72 1211.82 2246.04 1262.92C2242.85 1293.72 2256.48 1322.6 2282.47 1338.48C2309.1 1352.14 2342.72 1371.81 2350.94 1405.13C2357.27 1430.54 2347.14 1454.03 2339.21 1475.93C2326.22 1507.03 2310.38 1536.88 2296.43 1567.68C2288.83 1583.54 2291.03 1605.13 2295.79 1621.64C2297.06 1627.36 2296.35 1634.05 2293.48 1639.14C2291.1 1643.42 2286.74 1646.21 2282.03 1646.08C2273.26 1646.99 2261.21 1632.5 2256.09 1621.97C2243.95 1596.01 2246.42 1567.86 2256.17 1545.19C2270.94 1510.8 2286.39 1481.41 2298.9 1446.38C2303.59 1427.96 2298.45 1405.13 2284.84 1395.43C2273.68 1384.72 2255.26 1381.93 2239.1 1380.92L2080.88 1381.93C2032.98 1382.33 1985.23 1380.13 1934.65 1380.28C1929.25 1379.67 1924.62 1374.03 1921.42 1370.23C1918.28 1365.47 1918.28 1358.17 1920.15 1352.77C1922.04 1348.31 1923.97 1342.28 1929.67 1341.02C1935.06 1337.52 1936.89 1343.55 1940.69 1336.26C1947.86 1290.23 1949.68 1237.77 1947.76 1186.67C1946.49 1184.76 1949.33 1188.56 1947.76 1186.67L1948.06 1188.33C1949.63 1235.62 1950.34 1288.29 1943.96 1332.99L1941.41 1333.32C1939.55 1276.88 1933.62 1220.66 1923.68 1165.07C1888.16 1128.89 1865.01 1079.43 1866.91 1025.79C1866.56 1025.79 1862.76 1027 1861.21 1027.41C1840.99 1032.73 1826.56 1032.69 1811.03 1025.07C1808.85 1025.48 1806.35 1025.58 1805.96 1020.19C1805.96 1020.19 1803.2 989.399 1802.77 988.568C1800.39 983.938 1793.28 982.343 1790.79 972.732C1790.23 970.54 1794.16 915.873 1810.83 895.523C1810.83 895.523 1823.11 875.978 1844.09 861.659V861.659Z" fill="white"/>
<path fill-rule="evenodd" clip-rule="evenodd" d="M1858.32 869.402C1885.27 861.465 1917.85 875.563 1937.5 897.78C1944.47 905.082 1949.86 912.384 1954.93 920.633C1949.86 923.81 1943.51 928.259 1939.07 933.019C1970.78 924.783 2002.8 936.21 2024.33 961.604C2036.69 975.884 2048.12 991.435 2054.45 1008.89C2083.61 1006.66 2110.56 1017.14 2133.68 1029.22C2164.43 1048.26 2193.29 1078.73 2204.72 1114.28C2221.81 1165.71 2218.96 1228.56 2220.22 1283.16C2224.34 1313.94 2247.5 1340.31 2273.79 1351.73C2300.11 1364.43 2334.66 1380.62 2336.57 1416.51C2337.5 1479.02 2297.26 1525.39 2283.63 1582.53C2279.53 1600.92 2287.43 1617.11 2292.52 1633C2293.13 1636.8 2293.46 1641.89 2289.02 1643.79C2286.15 1646.65 2280.79 1646.65 2276.98 1645.36C2255.73 1633 2247.8 1607.28 2247.8 1582.21C2249.07 1552.04 2264.6 1527.92 2276.03 1501.91C2286.49 1471.41 2313.11 1438.74 2293.46 1404.77C2274.77 1377.79 2238.31 1380.29 2208.19 1381.27L2076.82 1382.56C2027.04 1383.2 1983.09 1381.82 1934.63 1380.31C1932.42 1379.41 1930.46 1377.98 1928.91 1376.16C1927.36 1374.34 1926.27 1372.17 1925.74 1369.84C1924.8 1365.72 1926.06 1361.58 1927.66 1358.41C1932.73 1352.38 1943.49 1353.65 1946.35 1344.76C1956.18 1289.21 1953.64 1227.94 1951.42 1170.16C1944.45 1160.65 1935.26 1153.35 1927.96 1143.18C1901.96 1107.32 1882.64 1066.98 1880.08 1020.97C1859.83 1029.54 1832.86 1036.53 1811.01 1025.09C1809.74 1025.09 1806.57 1025.42 1806.25 1022.87L1802.75 988.594C1798.31 982.563 1790.07 979.075 1790.71 970.489C1791.64 953.991 1794.19 937.792 1798.31 922.241C1795.44 938.091 1795.44 954.327 1798.31 970.177C1801.81 969.542 1804.98 967.311 1809.1 969.853C1813.54 974.626 1813.2 981.292 1812.9 987.959L1810.37 1020.97L1811.64 1022.24C1815.44 1003.83 1820.51 984.47 1818.31 964.458C1813.21 954.614 1807.52 945.405 1809.41 932.721C1809.41 920.983 1811.31 909.868 1814.48 899.388C1803.08 890.18 1795.16 879.078 1790.72 865.745C1789.79 864.15 1791.51 861.569 1792.47 860.298C1799.31 858.352 1803.72 862.528 1809.11 862.191C1824.66 864.396 1842.77 866.471 1858.32 869.402V869.402Z" fill="black" stroke="black" stroke-width="1.84171" stroke-miterlimit="2.613"/>
<path fill-rule="evenodd" clip-rule="evenodd" d="M1947.77 1186.66C1949.67 1235.54 1949.65 1292.45 1942.99 1339.44L1941.6 1339.6C1940 1282.77 1932.88 1219.99 1923.69 1165.07L1947.77 1186.66Z" fill="black" stroke="black" stroke-width="0.181577" stroke-miterlimit="2.613"/>
<path d="M1866.82 1030.03C1866.26 1082.04 1889.11 1129.82 1923.69 1165.06C1923.61 1164.7 1923.74 1165.41 1923.69 1165.06L1947.77 1186.66M1844.09 861.659C1866.61 847.38 1892.6 855.317 1914.47 864.526C1933.16 874.668 1950.29 888.649 1962.97 905.795C1968.37 912.462 1972.47 921.035 1980.09 926.119C2007.02 931.514 2027.62 950.23 2045.37 970.878C2059 977.544 2076.45 977.544 2091.65 981.98C2158.22 991.188 2218.13 1040.07 2239.68 1105.46C2257.78 1153.08 2251.72 1211.82 2246.04 1262.92C2242.85 1293.72 2256.48 1322.6 2282.47 1338.48C2309.1 1352.14 2342.72 1371.81 2350.94 1405.13C2357.27 1430.54 2347.14 1454.03 2339.21 1475.93C2326.22 1507.03 2310.38 1536.88 2296.43 1567.68C2288.83 1583.54 2291.03 1605.13 2295.79 1621.64C2296.78 1626.2 2296.55 1630.95 2295.13 1635.4L1844.09 861.659ZM1923.83 1373.04C1922.98 1372.06 1922.18 1371.1 1921.42 1370.2C1918.28 1365.44 1918.28 1358.14 1920.15 1352.75C1922.04 1348.28 1923.97 1342.25 1929.67 1341C1935.06 1337.49 1943.93 1342.97 1947.73 1335.68L1923.83 1373.04ZM1804.24 906.392C1793.37 927.896 1790.33 970.878 1790.79 972.719C1793.26 982.317 1800.39 983.912 1802.77 988.556C1803.2 989.386 1805.96 1020.18 1805.96 1020.18C1806.34 1025.57 1808.85 1025.47 1811.03 1025.05C1826.56 1032.67 1841.01 1032.72 1861.21 1027.4C1862.76 1026.98 1866.56 1025.78 1866.91 1025.78L1804.24 906.392Z" stroke="black" stroke-width="0.739277" stroke-miterlimit="2.613" stroke-linecap="round"/>
<path d="M1934.62 1380.03C1934.62 1380.03 1928.57 1379.83 1923.09 1372.14M1845 861.141C1845 861.141 1841.23 863.553 1837.85 866.38L1845 861.141ZM1810.83 895.523C1810.83 895.523 1806.79 900.854 1803.99 906.885L1810.83 895.523ZM2295.19 1634.96C2295.19 1634.96 2293.83 1639.56 2290.6 1642.61L2295.19 1634.96Z" stroke="black" stroke-width="0.739277" stroke-miterlimit="2.613"/>
</svg>
