<svg width="2500" height="2500" viewBox="0 0 2500 2500" fill="none" xmlns="http://www.w3.org/2000/svg">
<path d="M178.023 872.528V685.698H248.086C262.093 685.698 273.766 687.449 281.95 690.951C290.704 695.037 297.708 700.873 302.39 708.473C307.643 716.644 309.977 724.815 309.977 732.999C309.977 741.17 307.643 748.757 303.557 755.761C298.888 762.765 292.481 768.601 283.701 772.687C294.79 776.202 303.557 782.038 309.977 789.625C315.814 797.796 318.732 807.147 318.732 818.237C318.796 826.698 317.003 835.07 313.479 842.762C309.394 849.766 305.308 855.602 299.459 859.701C293.431 864.297 286.451 867.487 279.032 869.039C270.861 871.374 260.926 872.541 249.253 872.541L178.023 872.528V872.528ZM202.549 763.932H242.833C253.922 763.932 261.509 763.349 266.762 761.585C272.611 759.834 277.281 756.915 280.782 752.246C283.701 748.161 285.452 742.895 285.452 735.891C285.452 730.055 283.701 724.219 280.782 719.55C277.864 714.88 273.779 711.962 268.526 710.211C262.69 708.46 253.351 707.293 239.915 707.293H202.549V763.932V763.932ZM202.549 850.35H249.279C256.866 850.35 262.703 849.766 265.621 849.182C271.457 848.015 276.126 846.848 280.212 843.93C283.714 841.595 287.215 838.093 289.55 834.008C291.885 829.339 293.065 824.086 293.065 818.25C293.065 811.233 291.314 804.813 287.812 800.144C284.31 794.891 279.641 791.389 273.221 789.055C266.788 787.304 257.45 786.136 245.777 786.136H202.575V850.35H202.549V850.35ZM643.949 872.528L715.762 685.698H742.623L818.522 872.528H790.494L768.887 815.889H690.653L670.213 872.528H643.949V872.528ZM697.67 795.462H761.312L741.455 743.505C736.645 730.843 732.362 717.988 728.615 704.972C726.281 717.228 722.779 728.914 718.11 740.587L697.67 795.462V795.462ZM1150.16 872.528V685.698H1175.27L1273.36 832.244V685.698H1297.33V872.528H1271.62L1173.52 725.399V872.528H1150.16ZM1783.63 806.564L1808.17 812.984C1802.94 833.424 1793.58 848.599 1780.15 859.701C1766.74 870.206 1750.36 875.459 1731.13 875.459C1710.69 875.459 1694.34 871.374 1681.5 863.203C1669.25 855.032 1659.31 843.346 1652.88 827.588C1646.29 811.667 1642.91 794.6 1642.93 777.369C1642.93 758.109 1647.02 741.17 1654.01 726.566C1661.61 711.975 1672.11 700.873 1686.15 693.286C1699.57 685.698 1714.75 682.197 1731.13 682.197C1749.78 682.197 1765.56 686.866 1778.41 696.788C1791.24 706.126 1800.02 719.563 1805.25 736.488L1780.72 742.325C1776.07 728.901 1770.2 718.966 1762.03 712.546C1753.88 706.71 1743.38 703.208 1730.52 703.208C1716.51 703.208 1704.25 706.722 1694.9 713.739C1684.97 720.756 1678.56 730.081 1674.46 741.183C1670.51 752.839 1668.54 765.075 1668.64 777.382C1668.64 793.14 1670.99 807.16 1675.63 818.833C1680.31 830.506 1687.3 839.857 1697.24 845.694C1707.18 851.53 1717.68 854.448 1728.79 854.448C1742.8 854.448 1754.46 850.363 1763.82 842.192C1773.73 834.591 1780.15 822.322 1783.63 806.564V806.564ZM2142.72 781.454C2142.72 750.508 2150.91 725.983 2167.84 708.473C2184.21 690.951 2205.82 682.197 2232.08 682.197C2249.59 682.197 2264.78 686.282 2278.8 694.453C2292.57 702.457 2303.57 714.476 2310.32 728.901C2317.92 743.492 2321.41 760.43 2321.41 779.12C2321.41 797.783 2317.89 814.735 2309.73 829.922C2302.16 845.097 2291.64 856.199 2277.63 863.786C2263.63 871.374 2248.43 875.459 2232.08 875.459C2214.54 875.459 2198.8 871.374 2184.8 862.619C2171.37 854.448 2160.85 842.762 2153.25 828.171C2146.22 812.984 2142.72 797.796 2142.72 781.454V781.454ZM2168.39 781.454C2168.39 804.229 2174.24 821.738 2186.49 834.591C2198.75 848.015 2213.93 854.435 2232.04 854.435C2250.71 854.435 2265.91 848.015 2277.59 834.591C2289.85 821.738 2295.7 803.062 2295.7 779.12C2295.7 763.945 2293.35 750.508 2288.13 739.406C2283.38 728.556 2275.7 719.251 2265.93 712.546C2255.71 706.408 2244.01 703.179 2232.08 703.208C2214.54 703.208 2199.94 709.641 2187.1 721.314C2174.28 733.57 2168.39 753.427 2168.39 781.454V781.454ZM499.738 1482.66L503.253 1483.25L506.171 1485.01L509.089 1486.18L511.424 1487.94L514.355 1490.29L516.689 1492.63L519.024 1494.97L520.775 1497.9L522.526 1500.82L523.693 1503.75L524.86 1506.68L525.444 1510.2L526.028 1513.71L526.611 1517.23L526.028 1520.74L525.444 1524.26L524.86 1527.2L523.693 1530.7L522.526 1533.65L520.775 1536.57L519.024 1538.93L516.689 1541.85L514.355 1544.19L511.424 1545.96L509.089 1548.29L506.171 1549.46L503.253 1551.22L499.738 1551.82L496.223 1552.99L492.138 1553.57H432.581V1481.17H492.138L496.223 1481.76L499.738 1482.66ZM499.738 1203.58L503.253 1204.75L506.171 1205.92L509.089 1207.67L511.424 1209.42L514.355 1211.75L516.689 1214.09L519.024 1216.42L520.775 1219.34L522.526 1222.26L523.693 1225.18L524.86 1228.11L525.444 1231.61L526.028 1235.11L526.611 1238.61L526.028 1242.13L525.444 1245.64L524.86 1248.56L523.693 1252.06L522.526 1254.99L520.775 1257.92L519.024 1260.27L516.689 1263.19L514.355 1265.55L511.424 1267.3L509.089 1269.05L506.171 1270.83L503.253 1272L499.738 1273.16L496.223 1273.75L492.138 1274.33H432.581V1202.52H492.138L496.223 1203.1L499.738 1203.58V1203.58ZM492.138 1511.26L492.721 1511.85H493.292L493.876 1512.44H494.459V1513.04L495.043 1513.61L495.627 1514.19L496.21 1514.79V1519.46H495.627V1520.06L495.043 1520.64L494.459 1521.24V1521.82H493.876L493.292 1522.4H492.721L492.138 1522.99H462.359V1511.31H492.138V1511.26V1511.26ZM492.138 1232.78H492.721L493.292 1233.36H493.876L494.459 1233.94V1234.53L495.043 1235.1H495.627V1235.68L496.21 1236.27V1240.36L495.627 1240.93V1241.52L495.043 1242.1V1242.69H494.459L493.876 1243.27L493.292 1243.85H492.138V1244.44H462.359V1232.18H490.387L491.554 1232.76L492.138 1232.78V1232.78ZM402.231 1451.15H495.056C529.504 1454.09 556.364 1482.68 556.364 1517.13C556.364 1551.57 529.517 1580.17 495.056 1582.53V1583.12H402.218L402.231 1451.15V1451.15ZM402.231 1172.65H495.056C529.504 1175.57 556.364 1203.59 556.364 1238.61C556.364 1273.06 529.517 1301.67 495.056 1304.01V1304.59H402.218L402.231 1172.65V1172.65ZM2117.04 1288.83H2115.29L2111.78 1287.65L2108.27 1287.08L2104.76 1285.89L2101.26 1285.3L2097.76 1284.14L2094.24 1282.97H2093.66L2091.91 1282.39L2087.25 1280.62L2084.89 1280.04L2082.56 1279.44L2080.22 1278.86L2077.29 1278.27L2074.94 1277.69L2072.58 1277.11L2070.25 1276.52H2067.91L2064.99 1275.94H2062.65L2060.27 1275.34H2055.02L2052.1 1274.76H2050.35L2043.33 1275.34H2037.51L2031.08 1276.52L2025.25 1277.11L2019.99 1278.27L2014.17 1280.04L2008.9 1281.21L2003.66 1283.55L1998.99 1285.3L1994.35 1287.65L1989.69 1290L1985.01 1292.92L1980.94 1295.86L1976.85 1298.81L1972.79 1302.31L1968.72 1305.81L1965.2 1309.32L1961.7 1312.84L1958.78 1316.9L1955.28 1321.57L1952.31 1325.64L1949.39 1330.31L1947.06 1335.56L1944.73 1340.2L1942.36 1345.46L1940.6 1351.28L1938.85 1356.53L1937.09 1362.37L1935.92 1368.79L1934.75 1375.21L1933.58 1381.63V1388.05L1933 1395.07V1400.89L1933.58 1407.31L1934.17 1413.15L1935.34 1418.98L1936.5 1424.21L1938.25 1429.46L1940.02 1434.72L1941.81 1439.97L1944.14 1444.64L1946.48 1449.29L1949.39 1453.95L1952.31 1458.61L1955.83 1462.69L1958.75 1466.78L1962.26 1470.28L1966.35 1473.79L1969.86 1477.3L1973.91 1480.23L1978.59 1483.16L1982.66 1486.09L1987.32 1488.44L1992 1490.19L1997.23 1492.53L2002.48 1494.29L2007.72 1495.47L2012.99 1496.63L2017.64 1497.22L2010.62 1491.39L2004.22 1484.38L1998.95 1476.79L1993.71 1468.62L1989.65 1459.85L1986.14 1451.08L1983.79 1441.75L1982.62 1431.8L1982.04 1423.61V1385.17L1982.62 1376.4L1983.79 1367.07L1986.14 1357.7L1989.65 1348.36L1993.71 1339.6L1998.95 1332.01L2004.22 1324.42L2010.62 1317.42L2017.64 1311L2025.24 1305.73L2032.82 1300.5L2041.58 1296.42L2050.93 1292.9L2060.26 1290.56L2069.62 1289.39L2078.39 1288.81L2117.04 1288.83V1288.83ZM2049.92 1012.07C2096.64 1012.07 2141.55 1020.25 2183.04 1034.84L2182.46 1035.43C2201.56 1042.79 2217.98 1055.77 2229.55 1072.66C2241.12 1089.55 2247.29 1109.55 2247.26 1130.02C2247.26 1186.07 2201.11 1231.61 2145.1 1231.61C2132.68 1231.72 2120.37 1229.34 2108.9 1224.61V1225.19C2089.92 1218.64 2069.99 1215.29 2049.92 1215.27C1952.96 1215.27 1879.42 1284.16 1873.57 1385.17C1867.72 1485.58 1944.79 1566.75 2049.34 1557.41C2073.87 1556.81 2095.45 1551.57 2114.71 1542.81V1459.89H2079.69C2059.25 1459.89 2041.73 1442.95 2041.73 1421.93V1386.33C2041.73 1365.88 2059.25 1348.36 2079.69 1348.36H2253.11C2263.23 1348.36 2273.25 1350.34 2282.6 1354.22C2291.95 1358.09 2300.45 1363.76 2307.6 1370.92C2314.76 1378.08 2320.43 1386.58 2324.3 1395.93C2328.16 1405.28 2330.15 1415.31 2330.13 1425.43V1628C2330.13 1696.34 2271.75 1731.96 2210.44 1746.55C2148.56 1761.15 2077.9 1757.62 2049.88 1757.62C1836.77 1757.62 1662.76 1590.05 1662.76 1385.12C1662.79 1179.65 1836.79 1012.07 2049.92 1012.07V1012.07ZM1706 1646.75C1706 1704.55 1658.15 1752.41 1599.76 1752.41C1547.79 1752.41 1503.99 1713.86 1495.8 1664.24L1435.07 1428.93L1372.62 1648.48C1367.95 1665.42 1363.84 1677.67 1355.07 1692.84C1334.65 1727.87 1292.03 1752.41 1243.55 1752.41C1193.92 1752.41 1150.72 1726.73 1130.29 1689.95C1122.7 1675.94 1119.2 1661.92 1115.11 1646.16L1054.39 1434.21L995.417 1671.26H994.833C989.311 1694.36 976.169 1714.93 957.527 1729.66C938.885 1744.38 915.828 1752.39 892.073 1752.41C834.267 1752.41 786.409 1704.55 786.409 1646.75C786.409 1636.81 787.576 1629.22 789.911 1619.9L897.339 1121.87H897.923C903.176 1065.23 963.9 1020.86 1037.46 1020.86C1099.93 1020.86 1153.65 1052.98 1171.18 1096.76C1175.85 1107.85 1178.2 1120.7 1181.7 1131.79L1243.59 1350.15L1304.32 1137.63C1308.38 1124.19 1311.92 1110.19 1317.16 1096.76C1334.69 1052.98 1387.79 1020.86 1450.28 1020.86C1506.92 1020.86 1555.96 1047.13 1578.15 1084.51C1581.07 1089.76 1583.37 1095.02 1585.16 1100.26C1590.39 1114.86 1593.32 1130.63 1596.82 1145.81L1698.4 1597.75C1701.92 1615.79 1706 1629.22 1706 1646.75V1646.75ZM594.326 1013.83H223.56C209.485 1013.88 196.001 1019.49 186.048 1029.45C176.096 1039.4 170.484 1052.88 170.436 1066.96V1696.95C170.483 1711.03 176.095 1724.52 186.047 1734.47C195.998 1744.43 209.483 1750.05 223.56 1750.1H613.003C713.428 1750.1 795.163 1660.75 795.163 1551.57C795.163 1468.66 748.446 1397.43 682.482 1367.65C721.599 1332.03 746.708 1274.23 746.708 1208.83C746.708 1101.41 678.397 1013.83 594.326 1013.83V1013.83ZM1534.93 1798.54L1528.53 1795.61L1522.09 1792.68L1515.69 1789.18L1509.84 1785.09L1504.01 1781.02L1498.16 1776.95L1492.34 1772.29L1487.07 1767.62L1482.43 1762.95L1477.2 1757.71L1472.52 1752.46L1468.45 1746.63L1464.38 1740.8L1460.29 1734.95L1456.23 1728.55L1453.3 1722.71L1449.79 1715.71L1446.87 1709.29L1444.52 1702.28L1442.17 1695.86L1439.81 1688.27L1438.06 1681.26V1680.09L1432.24 1657.91L1429.9 1665.5L1429.32 1668.42L1428.15 1671.93L1427.54 1674.85L1426.38 1678.37L1425.21 1681.88L1424.03 1685.39L1422.86 1688.91L1421.68 1692.42L1419.93 1696.5L1418.76 1700.01L1417.01 1703.53L1415.23 1707.61L1413.48 1711.67L1411.15 1715.19L1408.8 1719.26L1406.45 1723.34L1403.51 1728.57L1400.01 1733.24L1397.09 1738.49L1393.02 1743.15L1389.5 1747.22L1385.43 1751.89L1381.38 1755.98L1377.29 1760.63L1372.63 1764.71L1367.95 1768.22L1363.29 1771.73L1358.65 1775.81L1353.98 1778.75L1348.74 1782.25L1344.06 1785.2L1338.82 1788.13L1332.97 1791.05L1327.74 1793.98L1322.5 1796.33L1316.66 1798.66L1311.42 1800.42L1305.58 1802.77L1299.75 1804.52L1293.32 1806.27L1287.5 1807.45L1281.65 1808.62L1275.24 1809.8L1269.4 1810.38L1263 1811.55H1256.56L1250.13 1812.14H1237.28L1230.86 1811.55H1224.44L1218.02 1810.38L1211.6 1809.8L1205.18 1808.62L1199.34 1807.45L1192.92 1805.69L1187.08 1803.94L1180.66 1802.19L1174.83 1799.84L1168.99 1798.08L1163.15 1795.15L1157.9 1792.81L1152.07 1789.88L1146.81 1786.95L1141.56 1784.02L1136.31 1780.5L1131.05 1776.99L1126.39 1773.47L1121.72 1769.96L1117.05 1765.9L1112.38 1761.81L1107.71 1757.74L1103.62 1753.08L1099.54 1749.01L1095.45 1744.34L1091.95 1739.09L1087.86 1734.43L1084.95 1729.19L1081.43 1723.93L1078.51 1718.69L1076.18 1714.62L1073.84 1710.53L1072.09 1706.47L1070.34 1702.39L1069.18 1698.3L1067.42 1694.8L1066.26 1691.28L1065.09 1687.21L1063.92 1683.71L1062.76 1680.76L1061.59 1677.26L1061 1674.32L1059.84 1670.82L1059.25 1668.46L1058.67 1665.54L1052.83 1687.72L1049.33 1698.79L1047 1705.81L1044.66 1711.63L1041.74 1718.07L1038.83 1724.49L1035.31 1730.32L1031.81 1736.15L1027.72 1741.4L1023.64 1747.22L1019.55 1752.47L1015.47 1757.71L1010.8 1762.38L1005.55 1767.05L1000.88 1771.71L995.624 1775.78L990.371 1779.85L984.535 1783.94L978.698 1787.45L972.862 1790.97L967.026 1794.48L960.606 1797.41L954.769 1799.75L947.766 1802.69L941.346 1804.44L934.925 1806.79L927.909 1808.54L920.892 1809.72L913.888 1810.89L906.885 1811.47L899.881 1812.06H884.123L875.368 1811.47L867.197 1810.31L859.026 1808.54L850.855 1806.79L843.035 1804.38L835.447 1802.05L827.86 1799.1L820.273 1795.59L813.256 1792.07L806.252 1788L799.832 1783.93L793.412 1779.27L786.992 1774.02L781.156 1768.76L775.32 1763.51L770.067 1757.68L764.814 1752.44L759.561 1757.09L750.223 1764.11L740.301 1771.1L730.379 1777.53L719.861 1783.36L708.772 1788.61L697.683 1793.28L686.593 1797.93L674.921 1801.45L662.664 1804.37L650.408 1806.71L638.151 1808.48L625.895 1809.65H211.887L200.798 1807.89L189.709 1804.95L179.774 1800.88L169.852 1796.22L160.514 1790.39L151.759 1783.97L143.588 1776.96L136.585 1768.78L130.165 1760.02L124.328 1750.67L119.659 1740.74L115.574 1730.22L112.655 1719.69L110.904 1708.03L110.321 1698.08V1065.21L110.904 1055.28L112.655 1044.2L115.574 1033.12L119.659 1022.59L124.328 1012.67L130.165 1003.33L136.585 995.157L143.588 986.986L151.759 979.399L160.514 972.979L169.852 967.726L179.774 962.473L189.709 958.971L200.798 956.053L211.887 954.302L221.809 953.719H595.494L605.999 954.302L617.672 955.47L628.761 957.221L639.85 959.555L650.939 963.057L661.458 966.533L671.976 971.202L681.898 976.455L691.833 981.707L701.171 988.127L709.926 994.56L718.681 1001.56L726.852 1009.15L734.439 1017.32L742.026 1025.49L749.03 1033.66L756.033 1043L762.466 1052.34L768.303 1061.68L773.556 1071.6L778.808 1082.12L783.478 1092.05L787.563 1103.14L791.648 1114.23L795.15 1125.32L798.069 1136.41L800.403 1148.08L802.738 1159.76L804.489 1172.01L805.656 1183.69L806.239 1195.94L806.823 1208.2V1216.37L806.239 1223.39L805.656 1230.97L805.098 1238.61L804.514 1246.21L803.347 1253.22L802.18 1260.8L801.013 1267.81L799.262 1274.81L798.094 1281.81L795.76 1288.83L794.009 1295.84L791.674 1302.26L789.34 1309.26L787.005 1315.68L784.671 1322.09L781.753 1328.52L778.834 1334.93L775.903 1341.35L772.401 1347.78L768.9 1353.62L774.152 1358.86L780.572 1365.26L782.907 1367.62L838.962 1108.38L840.129 1104.3L841.297 1098.46L843.631 1090.29L845.966 1081.54L848.897 1073.36L852.399 1065.78L856.484 1058.19L861.153 1050.6L865.823 1043.59L870.492 1036.58L875.744 1030.16L881.581 1023.74L887.417 1017.91L893.837 1012.06L900.257 1006.8L906.677 1001.55L913.681 996.882L920.685 992.213L928.272 988.127L935.859 984.042L943.447 980.54L951.034 977.038L959.205 974.12L967.376 971.202L976.13 968.867L984.301 967.116L993.056 964.782L1001.81 963.615L1010.57 962.447L1019.33 961.28L1028.67 960.696H1045.61L1053.2 961.28L1060.78 961.864L1068.37 963.031L1075.96 963.615L1082.98 965.366L1090.56 966.533L1097.58 968.284L1104.58 970.618L1111.6 972.953L1118.6 975.287L1125.61 977.635L1132.04 980.553L1138.46 983.471L1144.88 986.973L1151.3 990.475L1157.14 993.977L1163.56 998.062L1169.39 1002.15L1174.65 1006.82L1180.48 1010.9L1185.73 1015.57L1190.99 1020.82L1195.66 1026.08L1200.33 1031.33L1204.99 1036.58L1209.08 1042.42L1213.17 1048.84L1217.25 1054.68L1220.75 1061.11L1223.67 1067.53L1226.6 1073.95L1227.77 1078.03L1228.94 1080.95L1230.1 1084.47L1231.27 1087.39L1232.44 1090.3L1233.02 1093.22L1233.61 1096.14L1234.77 1098.47L1235.36 1101.39L1235.94 1103.73L1236.52 1106.06L1237.11 1108.4L1237.69 1110.15V1111.9L1238.28 1113.65L1238.87 1115.4L1243.54 1132.34L1247.04 1121.25L1247.63 1118.91L1248.21 1116.58L1248.78 1114.25L1249.36 1111.91L1250.53 1108.99L1251.12 1106.07L1251.69 1103.74L1252.85 1100.81L1253.44 1097.31L1254.6 1094.38L1255.19 1091.46L1256.37 1087.94L1257.54 1085.02L1258.69 1081.52L1259.86 1078.02L1261.61 1073.94L1264.57 1067.52L1267.5 1061.1L1271 1054.66L1275.1 1048.83L1279.16 1042.41L1283.22 1036.57L1287.9 1031.32L1292.55 1026.06L1297.24 1020.81L1302.46 1015.56L1307.69 1010.89L1313.54 1006.8L1318.78 1002.13L1324.63 998.049L1330.45 993.964L1336.88 990.462L1343.29 986.96L1349.72 983.458L1356.13 980.54L1362.56 977.622L1369.58 975.274L1376.57 972.94L1382.99 970.605L1390.58 968.271L1397.58 966.52L1405.2 965.353L1412.17 963.602L1419.79 963.018L1427.36 961.851L1434.96 961.267L1442.56 960.683H1457.15L1464.17 961.267L1471.16 961.851L1478.18 962.434L1484.57 963.018L1491.59 964.185L1497.99 965.353L1505.01 967.104L1511.44 968.854L1517.84 970.605L1524.25 972.356L1530.1 974.691L1536.53 977.025L1542.35 979.36L1548.2 982.291L1554.02 985.209L1559.87 988.127L1565.7 991.642L1570.92 995.144L1576.18 998.646L1581.42 1002.16L1586.68 1006.23L1591.92 1010.32L1596.6 1014.4L1601.25 1018.49L1605.89 1023.16L1609.99 1027.83L1614.06 1033.08L1618.13 1037.75L1622.22 1043L1625.73 1048.84L1629.24 1054.09L1631.01 1057.59L1632.76 1060.51L1634.51 1063.43L1635.69 1066.93L1637.45 1069.85L1638.63 1073.36L1639.79 1076.28L1641.54 1079.8L1642.71 1083.88L1643.9 1087.39L1645.07 1091.47L1646.24 1094.97L1647.41 1098.49L1647.99 1101.99L1649.16 1105.49L1649.75 1108.99L1650.34 1112.49L1651.51 1115.41L1652.09 1118.33L1652.69 1121.25L1653.27 1124.17L1654.44 1130L1655.02 1132.34L1663.2 1169.12L1668.47 1160.35L1680.13 1142.25L1692.96 1125.32L1705.8 1108.97L1719.8 1093.79L1734.98 1078.62L1750.15 1064.6L1766.53 1050.59L1783.47 1038.33L1801.01 1026.08L1819.1 1014.99L1837.79 1004.47L1857.04 995.131L1876.88 986.377L1896.74 978.789L1917.72 971.773L1938.75 965.936L1960.35 961.267L1981.96 957.752L2004.15 954.834L2026.93 953.083L2049.13 952.5H2059.6L2064.86 953.083H2074.79L2079.43 953.667H2084.66L2089.34 954.25L2094.58 954.834L2099.26 955.418L2103.92 956.001L2109.17 956.585L2113.81 957.169L2118.47 957.752L2123.15 958.336L2128.39 959.503L2133.07 960.087L2137.72 961.254L2142.36 961.838L2147.04 963.005L2151.7 964.172L2156.35 965.34L2161.02 966.507L2165.67 967.674L2170.35 968.841L2175 970.009L2179.69 971.176L2184.33 972.927L2188.97 974.094L2193.07 975.845L2197.73 977.012L2205.33 979.931L2215.85 984.6L2220.5 987.518L2225.74 990.436L2231.01 993.354L2235.65 996.273L2240.92 999.774L2245.56 1003.86L2250.22 1007.36L2254.31 1011.45L2258.39 1015.53L2262.43 1019.62L2266.53 1024.29L2270.6 1028.37L2274.11 1033.04L2277.62 1038.29L2281.12 1042.96L2284.04 1048.22L2286.97 1053.47L2289.93 1058.72L2292.26 1063.97L2294.6 1069.23L2296.93 1075.06L2298.68 1080.9L2300.47 1086.74L2302.24 1092.57L2303.4 1098.41L2304.57 1104.83L2305.16 1110.67L2305.74 1117.09L2306.32 1123.51V1138.1L2305.74 1146.27L2304.57 1154.44L2302.82 1162.03L2301.06 1170.2L2299.28 1177.78L2296.35 1185.37L2293.43 1192.39L2290.51 1199.98L2286.41 1206.98L2282.91 1213.4L2278.84 1219.82L2274.16 1226.24L2269.5 1232.67L2264.27 1238.51L2259.02 1243.76L2253.2 1249.01L2247.35 1254.27L2241.53 1258.94L2235.09 1263.59L2228.69 1267.66L2221.67 1271.74L2214.65 1275.25L2207.66 1278.18L2200.06 1281.1L2193.07 1284.05L2184.89 1286.39L2177.29 1288.16L2172.63 1288.74H2259.62L2266.64 1289.32L2273.63 1290.49L2280.06 1291.66L2287.05 1292.83L2293.48 1295.19L2299.92 1296.94L2305.74 1299.87L2312.17 1302.22L2318 1305.13L2323.84 1308.65L2329.07 1312.16L2334.3 1316.22L2339.56 1320.31L2344.22 1324.39L2349.49 1329.04L2353.56 1333.71L2358.2 1338.36L2362.29 1343.62L2365.8 1348.87L2369.32 1354.11L2372.83 1359.96L2375.76 1365.78L2378.68 1372.2L2381.02 1378.04L2383.38 1384.46L2385.13 1390.88L2386.31 1397.87L2387.47 1404.3L2388.65 1411.29L2389.24 1418.31V1637.25L2388.06 1646.62L2386.89 1655.95L2385.13 1665.3L2382.77 1674.07L2379.85 1682.84L2376.93 1691.01L2373.42 1699.18L2369.33 1707.37L2364.67 1714.37L2360.02 1721.96L2354.75 1728.38L2349.52 1734.8L2343.68 1741.23L2337.87 1747.05L2332.02 1752.29L2326.19 1757.55L2319.76 1762.21L2313.35 1766.87L2306.92 1770.94L2299.93 1775.02L2293.5 1779.1L2286.48 1782.62L2279.49 1785.55L2273.05 1789.06L2266.06 1791.41L2259.05 1794.33L2252.03 1796.68L2245.04 1799.02L2238.02 1801.37L2231.03 1803.12L2224.02 1804.89L2217.03 1806.05L2210.01 1807.82L2202.99 1808.98L2196.59 1810.15L2189.57 1811.32L2182.59 1812.51L2176.16 1813.1L2169.17 1813.68L2162.73 1814.85L2156.31 1815.43H2149.91L2143.47 1816.01L2137.07 1816.6H2130.63L2124.81 1817.18H2118.96L2113.14 1817.76H2061.27L2057.76 1817.18H2048.98L2026.79 1816.6L2004.01 1815.43L1981.82 1812.51L1960.21 1808.43L1938.6 1803.76L1917.58 1797.93L1896.58 1791.51L1876.72 1783.33L1856.88 1775.16L1837.65 1765.22L1818.96 1755.29L1800.86 1743.62L1783.32 1731.94L1766.38 1719.12L1753.54 1708.04L1752.37 1710.96L1748.86 1718.56L1745.34 1725.56L1741.28 1732.57L1736.61 1738.97L1731.96 1745.41L1727.3 1751.81L1722.03 1757.65L1716.79 1763.49L1710.96 1768.74L1705.14 1773.99L1698.72 1779.23L1692.31 1783.9L1685.29 1787.99L1678.86 1792.05L1671.28 1795.56L1664.27 1799.07L1656.69 1802.01L1649.09 1804.34L1640.91 1806.7L1633.33 1808.45L1625.14 1810.2L1616.37 1811.37L1608.2 1811.95H1591.83L1584.84 1811.37L1577.24 1810.79L1569.64 1809.62L1562.65 1807.87L1555.05 1806.1L1548.06 1803.76L1541.63 1801.42L1534.93 1798.54V1798.54ZM1666.3 1228.11L1658.73 1246.21L1653.46 1261.39L1626.03 1139.35L1625.45 1136.44L1624.28 1130.6L1623.7 1127.68L1623.11 1124.74L1622.53 1121.82L1621.36 1118.89L1620.78 1115.97L1620.16 1112.46L1619.6 1109.54L1618.41 1106.61L1617.81 1103.09L1616.64 1099.59L1615.47 1096.67L1614.31 1093.17L1613.14 1090.25L1612.56 1087.33L1611.39 1084.42L1610.22 1082.08L1609.05 1079.75L1607.86 1076.81L1606.69 1074.48L1604.93 1071.55L1603.75 1069.21L1600.83 1064.55L1597.91 1060.46L1595 1055.79L1591.48 1051.71L1587.98 1047.62L1584.46 1044.12L1580.38 1040.03L1576.86 1036.53L1572.8 1033.03L1568.12 1029.53L1564.05 1026.03L1559.37 1023.08L1555.31 1020.16L1550.67 1017.24L1545.4 1014.33L1540.74 1011.98L1535.48 1009.06L1530.82 1006.73L1525.59 1004.98L1520.34 1002.64L1514.52 1000.89L1509.25 999.139L1503.43 997.388L1498.16 996.221L1492.34 995.053L1486.49 993.886L1480.68 992.719L1474.83 992.135L1469.02 991.551L1462.59 990.968H1456.76L1450.33 990.384L1443.92 990.968H1436.91L1430.5 991.551L1423.48 992.135L1417.08 993.302L1410.64 994.47L1404.21 995.637L1398.39 997.388L1391.95 999.139L1386.14 1000.89L1380.29 1003.22L1374.48 1005.56L1368.66 1007.91L1362.81 1010.24L1357.55 1013.16L1352.31 1016.08L1347.07 1019.58L1341.81 1022.5L1337.17 1026.01L1331.9 1030.08L1327.25 1033.6L1323.18 1037.67L1319.08 1041.76L1315.03 1045.84L1310.96 1050.51L1306.86 1055.18L1303.36 1059.85L1300.44 1064.52L1297.51 1069.77L1294.55 1075.02L1291.63 1080.28L1289.3 1085.53L1288.13 1088.45L1286.96 1091.39L1285.8 1094.31L1285.2 1097.24L1284.01 1100.16L1283.42 1103.08L1282.24 1106.01L1281.66 1108.93L1280.49 1111.26L1279.91 1114.18L1279.32 1117.1L1278.74 1119.43L1277.57 1122.35L1276.99 1124.69L1276.41 1127.02L1275.82 1129.36L1243.7 1240.87L1210.42 1123.52L1209.83 1121.77L1209.25 1119.43L1208.67 1117.68L1208.08 1115.35L1207.5 1113.6L1206.91 1111.26L1206.33 1108.93L1205.75 1106.59L1205.16 1103.68L1204.58 1101.34L1204 1099.01L1202.83 1096.09L1202.25 1093.75L1201.08 1090.84L1199.91 1088.5L1199.33 1085.58L1196.99 1080.33L1194.07 1075.08L1191.16 1069.82L1188.24 1064.57L1184.74 1059.9L1181.23 1055.23L1177.72 1050.56L1173.65 1045.89L1169.56 1041.81L1165.48 1037.72L1160.81 1033.64L1156.14 1030.12L1151.47 1026.05L1146.8 1022.54L1141.55 1019.62L1136.29 1016.12L1131.04 1013.2L1125.79 1010.28L1119.95 1007.95L1114.12 1005.6L1108.28 1003.26L1102.44 1000.93L1096.61 999.178L1090.19 997.427L1083.77 995.676L1077.33 994.509L1070.91 993.341L1064.49 992.174L1058.06 991.59L1051.64 991.007H1044.64L1037.63 990.423L1030.05 991.007H1021.87L1014.29 992.174L1006.12 992.758L998.529 994.509L991.526 995.676L983.938 998.01L976.922 999.761L969.334 1002.11L962.914 1005.03L955.898 1007.96L949.478 1010.88L943.058 1014.39L936.638 1017.89L930.801 1021.98L924.965 1026.06L919.128 1030.15L913.876 1034.82L908.623 1039.49L903.37 1044.16L898.701 1049.41L894.615 1055.25L890.53 1060.5L886.444 1066.34L882.943 1072.17L880.024 1078.59L877.106 1085.01L874.188 1091.44L872.437 1098.45L870.686 1104.87L869.519 1110.12L868.287 1115.4L798.224 1439.45L797.057 1437.7L793.555 1430.68L788.886 1423.67L784.8 1417.26L780.131 1410.24L775.462 1403.83L770.209 1398L764.957 1391.58L759.704 1385.74L753.868 1380.49L748.031 1375.25L741.598 1370L735.762 1364.74L729.342 1360.1L729.925 1358.92L733.427 1354.26L736.929 1349.01L740.431 1343.76L743.362 1338.52L746.28 1333.27L749.198 1328.01L752.117 1322.19L754.451 1316.94L756.786 1311.11L759.12 1305.26L761.455 1299.45L763.789 1293.02L765.54 1287.2L767.291 1280.76L769.042 1274.93L770.209 1268.51L771.96 1262.1L773.128 1255.67L774.295 1249.25L774.879 1242.24L775.462 1235.82L776.046 1229.39L776.63 1222.39V1215.27L777.213 1208.25L776.63 1197.16L776.046 1186.08L774.879 1175.58L773.711 1164.49L771.377 1153.97L769.042 1143.47L766.708 1133.53L763.206 1123.61L759.691 1113.69L756.189 1104.35L752.104 1095.01L747.435 1085.67L742.182 1076.91L737.513 1068.73L731.663 1059.98L725.827 1052.39L719.407 1044.81L712.987 1037.79L706.567 1030.79L698.98 1024.35L691.976 1018.52L684.389 1012.68L676.205 1007.43L668.034 1002.76L659.279 998.672L650.524 994.586L641.77 991.085L632.432 988.75L623.08 986.415L613.742 984.665L604.404 984.081L595.066 983.497H222.976L215.389 984.081L206.634 985.248L199.034 987.583L191.447 990.501L183.859 994.003L176.856 998.088L170.436 1002.76L164.586 1008.01L159.334 1013.85L154.664 1020.27L150.579 1027.27L147.077 1034.27L144.159 1041.86L141.824 1050.03L140.657 1058.2V1705.12L141.824 1713.32L144.159 1721.48L147.077 1729.08L150.579 1736.68L154.664 1743.08L159.334 1749.52L164.586 1755.34L170.436 1761.18L176.856 1765.85L183.859 1769.91L191.447 1773.42L199.034 1776.35L206.634 1778.12L215.389 1779.87H624.092L635.181 1778.7L645.687 1777.53L656.205 1775.18L666.711 1772.84L676.646 1769.32L686.567 1765.81L696.502 1761.74L705.841 1757.08L715.179 1751.81L723.933 1745.99L732.688 1740.15L740.859 1733.73L749.03 1726.73L756.617 1719.73L763.621 1712.13L770.041 1705.12L772.959 1710.96L776.461 1716.81L779.976 1722.63L783.478 1727.87L787.563 1732.54L791.648 1737.79L796.318 1742.45L800.987 1747.11L806.239 1751.18L810.909 1755.26L816.161 1758.78L821.998 1762.29L827.834 1765.81L833.671 1768.74L839.52 1771.67L845.356 1774.02L851.776 1776.35L858.196 1778.12L865.2 1779.28L871.62 1780.45L878.624 1781.63L885.057 1782.21H897.897L903.733 1781.63L909.57 1781.05L915.406 1780.45L921.242 1779.28L927.079 1777.53L932.332 1776.35L937.584 1774.6L942.837 1772.25L948.09 1769.91L953.343 1767.57L958.012 1765.22L963.264 1762.29L967.934 1759.36L972.019 1755.85L976.688 1752.33L980.774 1748.82L984.859 1745.3L988.945 1741.23L993.03 1737.16L996.532 1733.07L1000.05 1729.01L1002.96 1724.34L1006.48 1719.67L1009.4 1715.02L1011.73 1710.35L1014.65 1705.1L1016.99 1699.86L1018.74 1694.62L1021.07 1689.36L1023.99 1679.43L1056.1 1549.82L1085.88 1654.33L1087.05 1657.28L1087.62 1660.19L1088.79 1663.13L1089.37 1666.06L1090.54 1668.99L1091.12 1671.92L1092.29 1674.84L1092.87 1677.77L1094.04 1681.28L1095.21 1684.21L1096.37 1687.73L1097.54 1690.66L1099.29 1694.18L1101.04 1697.68L1102.21 1701.19L1104.54 1704.71L1106.88 1708.77L1109.21 1712.85L1112.13 1717.5L1115.05 1721.58L1118.55 1725.1L1121.47 1729.18L1124.97 1732.68L1128.47 1736.77L1132.56 1740.27L1136.06 1743.21L1140.15 1746.72L1144.23 1749.65L1148.32 1753.16L1152.4 1755.5L1157.07 1758.43L1161.16 1761.36L1165.83 1763.69L1170.5 1766.05L1175.16 1768.39L1179.83 1770.14L1185.09 1771.92L1189.76 1773.67L1195.02 1775.42L1200.27 1776.59L1205.53 1778.36L1210.78 1779.53L1216.03 1780.11L1221.28 1781.28L1227.12 1781.86H1232.37L1238.21 1782.45H1249.3L1254.55 1781.86H1259.81L1265.07 1781.28L1270.31 1780.11L1275.58 1779.53L1280.8 1778.36L1286.06 1777.2L1290.71 1776L1295.95 1774.25L1300.63 1772.5L1305.87 1770.72L1310.54 1768.97L1315.19 1766.64L1319.26 1764.28L1323.94 1761.94L1328.6 1759.6L1332.66 1757.25L1336.74 1754.33L1340.81 1751.4L1344.89 1748.47L1348.99 1745.54L1352.49 1742.02L1355.99 1738.51L1359.5 1735.58L1363.01 1731.5L1366.51 1727.99L1369.48 1724.49L1372.4 1720.41L1375.31 1716.33L1378.23 1712.24L1380.59 1708.18L1382.94 1704.67L1384.7 1701.15L1386.45 1698.22L1388.21 1694.71L1389.37 1691.78L1390.54 1688.26L1392.29 1685.33L1393.48 1681.82L1394.65 1678.88L1395.83 1675.95L1396.42 1672.44L1397.58 1669.52L1398.76 1666.58L1399.35 1663.06L1400.51 1660.14L1401.1 1657.22L1433.79 1543.36L1467.06 1673.57V1674.73L1468.83 1680.57L1470.58 1686.41L1472.34 1692.26L1474.68 1698.07L1477.04 1703.32L1479.37 1708.57L1482.29 1713.82L1485.23 1718.48L1488.73 1723.72L1491.67 1728.38L1495.73 1733.05L1499.24 1737.13L1503.31 1741.79L1507.38 1745.86L1512.03 1749.37L1516.11 1753.46L1520.77 1756.96L1526.04 1759.91L1530.69 1763.41L1535.94 1766.35L1541.18 1768.69L1546.41 1771.02L1552.26 1773.38L1557.5 1775.72L1563.35 1776.9L1569.17 1778.66L1575.02 1779.83L1581.43 1781L1587.27 1781.58L1593.67 1782.16H1606.5L1613.52 1781.58L1620.53 1780.41L1626.94 1779.24L1633.37 1778.06L1639.78 1776.3L1646.21 1773.97L1652.62 1771.63L1658.47 1768.69L1664.29 1765.77L1670.14 1762.25L1675.38 1758.74L1680.64 1755.24L1685.86 1751.16L1691.1 1747.08L1695.78 1742.44L1699.86 1737.77L1704.54 1732.51L1708.04 1727.86L1712.11 1722.59L1715.61 1716.78L1719.13 1710.93L1722.05 1705.1L1724.38 1699.27L1727.33 1693.45L1729.08 1687.02L1730.84 1680.6L1732.59 1673.59L1733.77 1667.17L1734.94 1660.17V1653.75L1735.52 1648.5L1741.96 1656.1L1755.38 1670.1L1769.97 1682.94L1785.15 1695.78L1800.93 1707.46L1817.27 1719.12L1834.2 1729.06L1851.73 1738.99L1869.84 1747.75L1887.93 1755.92L1907.2 1762.93L1926.45 1769.35L1945.72 1774.6L1966.16 1779.27L1986.57 1782.77L2007.01 1785.72L2028.61 1786.88L2049.04 1787.47H2065.42L2068.92 1788.06H2106.81L2112.66 1787.47H2123.73L2129.54 1786.88H2135.39L2141.22 1786.3L2147.65 1785.72H2153.47L2159.91 1785.12L2166.31 1784.54L2172.75 1783.36L2178.57 1782.77L2185 1781.6L2191.41 1781.02L2197.84 1779.85L2204.26 1778.69L2210.67 1776.92L2217.1 1775.74L2223.5 1773.99L2229.93 1772.24L2236.34 1770.46L2242.77 1768.71L2248.59 1766.38L2255.03 1764.02L2261.43 1761.1L2267.28 1758.74L2273.11 1755.82L2278.96 1752.9L2284.77 1749.39L2290.62 1745.87L2296.43 1742.36L2301.69 1738.29L2307.52 1734.2L2312.78 1730.14L2317.44 1725.47L2322.09 1720.22L2326.76 1715.56L2331.41 1710.31L2335.48 1704.49L2339.58 1698.65L2343.08 1692.8L2346.59 1686.39L2349.51 1679.39L2351.85 1672.97L2354.18 1665.97L2355.94 1658.38L2357.7 1651.36L2358.29 1643.78L2359.49 1635.6V1419.61L2358.9 1414.35L2358.29 1409.1L2357.11 1403.86L2355.94 1398.61L2354.76 1393.35L2353.01 1388.7L2350.68 1384.04L2348.93 1379.39L2346.59 1374.72L2343.65 1370.05L2341.3 1365.98L2338.37 1361.9L2334.87 1357.83L2331.35 1353.76L2327.85 1350.24L2324.35 1346.73L2320.25 1343.21L2316.75 1340.28L2312.09 1337.35L2308 1334.42L2303.34 1331.5L2299.25 1329.15L2294.03 1327.39L2289.37 1325.06L2284.69 1323.31L2279.45 1322.12L2274.18 1320.96L2268.96 1319.78L2263.73 1319.19L2258.46 1318.61H2078.64L2072.79 1319.19L2065.8 1320.36L2059.37 1321.54L2052.96 1323.89L2047.11 1326.81L2041.29 1330.32L2036.03 1334.39L2031.39 1338.48L2027.32 1343.15L2023.22 1348.39L2019.72 1354.23L2016.8 1360.06L2014.45 1366.47L2013.24 1372.9L2012.08 1379.89L2011.49 1385.73V1422.51L2012.08 1428.93L2013.24 1435.35L2014.45 1442.35L2016.8 1448.19L2019.72 1454.61L2023.22 1459.85L2027.32 1465.1L2031.39 1469.77L2036.03 1474.43L2041.29 1477.94L2047.11 1481.45L2052.96 1484.38L2059.37 1486.72L2065.8 1488.48L2072.79 1489.64H2084.46V1521.78L2083.29 1522.37L2079.78 1523.53L2076.85 1524.13L2073.35 1524.71L2069.83 1525.3L2066.33 1525.88L2062.83 1526.46L2059.31 1527.06L2055.24 1527.64H2047.06L2037.73 1528.23H2021.95L2014.37 1527.06L2007.36 1526.46L2000.37 1524.71L1993.35 1522.95L1986.33 1520.6L1979.93 1518.27L1973.49 1515.34L1967.67 1511.82L1961.82 1508.31L1956.01 1504.8L1950.74 1500.72L1945.52 1496.05L1940.83 1491.41L1936.18 1486.74L1932.11 1481.5L1928.02 1475.65L1923.96 1470.41L1920.45 1464.57L1916.93 1458.15L1913.99 1451.74L1911.65 1445.31L1909.32 1438.9L1907.57 1431.89L1905.8 1424.87L1904.6 1417.3L1903.43 1409.7L1902.85 1402.12V1386.92L1903.43 1378.75L1904.6 1370.58L1905.8 1362.98L1907.57 1355.98L1909.32 1348.39L1911.65 1341.37L1913.99 1334.95L1916.93 1327.95L1919.86 1321.54L1923.38 1315.69L1926.88 1309.87L1930.39 1304.03L1934.45 1298.79L1938.51 1293.54L1943.19 1288.88L1947.85 1284.21L1952.51 1279.55L1957.76 1275.47L1962.99 1271.4L1968.84 1267.89L1974.08 1264.37L1980.51 1260.86L1986.33 1257.92L1992.77 1255.59L1999.17 1253.26L2005.61 1250.91L2012.62 1249.16L2019.61 1247.99L2026.63 1246.82L2034.2 1245.66H2041.8L2049.4 1245.07H2055.82L2059.34 1245.66H2062.3L2065.21 1246.24H2068.72L2071.65 1246.82L2074.6 1247.41L2078.11 1247.99L2081.02 1248.57L2083.97 1249.16L2086.9 1249.74L2089.83 1250.91L2092.75 1251.49L2095.67 1252.67L2100.35 1253.84L2102.1 1254.42H2103.27L2106.19 1255.59L2109.14 1256.17L2112.07 1257.34L2114.99 1257.92L2117.91 1258.52L2120.87 1259.1L2123.8 1259.69L2126.72 1260.27L2129.64 1260.86H2132.58L2136.09 1261.44H2151.85L2158.29 1260.86L2165.28 1260.27L2171.71 1259.1L2178.1 1257.34L2183.95 1255.58L2190.36 1253.24L2196.21 1250.89L2202.03 1248.56L2207.88 1245.64L2213.12 1242.13L2218.39 1238.61L2223.61 1235.11L2228.87 1231.61L2233.52 1226.94L2238.18 1222.87L2242.28 1218.2L2246.34 1213.53L2250.4 1208.86L2253.91 1203.61L2257.41 1198.35L2260.34 1192.52L2263.3 1186.68L2266.22 1180.85L2268.55 1175.01L2270.89 1169.17L2272.64 1162.75L2273.82 1156.32L2274.99 1149.9L2276.19 1143.48L2276.78 1136.46V1124.79L2276.19 1119.54L2275.61 1114.28L2274.99 1109.62L2274.4 1104.36L2273.24 1099.69L2272.06 1095.02L2270.31 1090.36L2269.14 1085.1L2267.39 1081.02L2265.05 1076.35L2263.3 1071.68L2260.93 1067.59L2258.59 1063.51L2255.66 1059.42L2253.33 1055.35L2250.38 1051.26L2247.47 1047.18L2244.53 1043.68L2241.02 1040.18L2237.5 1036.67L2233.99 1033.17L2230.49 1030.24L2226.97 1027.32L2222.91 1023.82L2218.85 1021.49L2215.34 1018.57L2210.68 1016.23L2206.61 1013.9L2202.53 1011.56L2193.78 1007.48L2187.93 1005.73L2183.87 1003.98L2179.8 1002.81L2175.7 1001.64L2171.06 999.891L2166.98 998.724L2162.9 997.557L2158.25 996.389L2154.15 995.222L2149.51 994.055L2145.45 993.471L2140.76 992.304L2136.69 991.136L2132.01 990.553L2127.95 989.386L2123.31 988.802L2118.62 988.218L2113.97 987.635L2109.9 986.467L2105.23 985.884L2100.58 985.3H2095.9L2091.83 984.716L2087.17 984.133L2082.5 983.549H2077.86L2073.18 982.966H2063.87L2059.18 982.382H2049.9L2028.87 982.966L2007.27 984.716L1986.83 987.051L1966.41 990.553L1945.97 995.222L1926.7 1000.47L1907.46 1006.89L1888.2 1013.91L1870.1 1022.08L1851.99 1030.84L1834.44 1040.76L1817.51 1051.28L1801.16 1062.37L1785.38 1074.04L1770.2 1086.89L1755.61 1100.32L1742.19 1114.34L1728.77 1128.93L1716.51 1144.1L1704.85 1159.86L1693.77 1176.22L1683.83 1193.15L1674.47 1210.08L1666.3 1228.11V1228.11Z" fill="#E5A430"/>
</svg>
